{
	"patcher" : 	{
		"fileversion" : 1,
		"appversion" : 		{
			"major" : 8,
			"minor" : 5,
			"revision" : 6,
			"architecture" : "x64",
			"modernui" : 1
		}
,
		"classnamespace" : "box",
		"rect" : [ 90.0, 87.0, 2189.0, 1289.0 ],
		"bglocked" : 0,
		"openinpresentation" : 0,
		"default_fontsize" : 11.0,
		"default_fontface" : 0,
		"default_fontname" : "JetBrainsMono Nerd Font Medium",
		"gridonopen" : 1,
		"gridsize" : [ 15.0, 15.0 ],
		"gridsnaponopen" : 1,
		"objectsnaponopen" : 1,
		"statusbarvisible" : 2,
		"toolbarvisible" : 1,
		"lefttoolbarpinned" : 0,
		"toptoolbarpinned" : 0,
		"righttoolbarpinned" : 0,
		"bottomtoolbarpinned" : 0,
		"toolbars_unpinned_last_save" : 11,
		"tallnewobj" : 0,
		"boxanimatetime" : 50,
		"enablehscroll" : 1,
		"enablevscroll" : 1,
		"devicewidth" : 0.0,
		"description" : "",
		"digest" : "",
		"tags" : "",
		"style" : "",
		"subpatcher_template" : "darkMode",
		"assistshowspatchername" : 0,
		"boxes" : [ 			{
				"box" : 				{
					"id" : "obj-106",
					"maxclass" : "mc.ezdac~",
					"numinlets" : 1,
					"numoutlets" : 0,
					"patching_rect" : [ 588.740000000000009, 704.893799124956104, 45.0, 45.0 ]
				}

			}
, 			{
				"box" : 				{
					"id" : "obj-105",
					"maxclass" : "toggle",
					"numinlets" : 1,
					"numoutlets" : 1,
					"outlettype" : [ "int" ],
					"parameter_enable" : 0,
					"patching_rect" : [ 588.740000000000009, 595.926754493713361, 24.0, 24.0 ]
				}

			}
, 			{
				"box" : 				{
					"id" : "obj-102",
					"maxclass" : "newobj",
					"numinlets" : 1,
					"numoutlets" : 2,
					"outlettype" : [ "multichannelsignal", "bang" ],
					"patching_rect" : [ 588.740000000000009, 651.009193842411037, 133.0, 19.0 ],
					"text" : "mcs.play~ bb 16 @loop 1"
				}

			}
, 			{
				"box" : 				{
					"id" : "obj-101",
					"maxclass" : "button",
					"numinlets" : 1,
					"numoutlets" : 1,
					"outlettype" : [ "bang" ],
					"parameter_enable" : 0,
					"patching_rect" : [ 52.980136871337891, 644.922088892459897, 24.0, 24.0 ]
				}

			}
, 			{
				"box" : 				{
					"id" : "obj-97",
					"maxclass" : "message",
					"numinlets" : 2,
					"numoutlets" : 1,
					"outlettype" : [ "" ],
					"patching_rect" : [ 244.109880089759827, 326.572427723407714, 32.0, 19.0 ],
					"text" : "clear"
				}

			}
, 			{
				"box" : 				{
					"id" : "obj-95",
					"maxclass" : "newobj",
					"numinlets" : 0,
					"numoutlets" : 1,
					"outlettype" : [ "" ],
					"patching_rect" : [ 105.369132101535797, 600.926754493713361, 46.0, 19.0 ],
					"text" : "r restart"
				}

			}
, 			{
				"box" : 				{
					"id" : "obj-94",
					"maxclass" : "newobj",
					"numinlets" : 0,
					"numoutlets" : 1,
					"outlettype" : [ "" ],
					"patching_rect" : [ 223.553601670265209, 295.767592263221673, 46.0, 19.0 ],
					"text" : "r restart"
				}

			}
, 			{
				"box" : 				{
					"id" : "obj-88",
					"maxclass" : "newobj",
					"numinlets" : 1,
					"numoutlets" : 1,
					"outlettype" : [ "bang" ],
					"patching_rect" : [ 82.411115591526027, 149.054447321891757, 21.0, 19.0 ],
					"text" : "t b"
				}

			}
, 			{
				"box" : 				{
					"id" : "obj-93",
					"maxclass" : "message",
					"numinlets" : 2,
					"numoutlets" : 1,
					"outlettype" : [ "" ],
					"patching_rect" : [ 196.109880089759827, 326.572427723407714, 33.0, 19.0 ],
					"text" : "reset"
				}

			}
, 			{
				"box" : 				{
					"id" : "obj-91",
					"maxclass" : "newobj",
					"numinlets" : 1,
					"numoutlets" : 0,
					"patching_rect" : [ 82.411115591526027, 177.079922823905918, 48.0, 19.0 ],
					"text" : "s restart"
				}

			}
, 			{
				"box" : 				{
					"id" : "obj-90",
					"maxclass" : "message",
					"numinlets" : 2,
					"numoutlets" : 1,
					"outlettype" : [ "" ],
					"patching_rect" : [ 105.369132101535797, 649.922088892459897, 29.5, 19.0 ],
					"text" : "0"
				}

			}
, 			{
				"box" : 				{
					"id" : "obj-87",
					"maxclass" : "newobj",
					"numinlets" : 1,
					"numoutlets" : 1,
					"outlettype" : [ "" ],
					"patching_rect" : [ 254.59732586145401, 600.926754493713361, 103.0, 19.0 ],
					"text" : "expr pow(2\\, $f1/12)"
				}

			}
, 			{
				"box" : 				{
					"id" : "obj-85",
					"maxclass" : "newobj",
					"numinlets" : 1,
					"numoutlets" : 1,
					"outlettype" : [ "multichannelsignal" ],
					"patching_rect" : [ 170.78125, 651.009193842411037, 66.0, 19.0 ],
					"text" : "mc.dup~ 16"
				}

			}
, 			{
				"box" : 				{
					"id" : "obj-84",
					"maxclass" : "newobj",
					"numinlets" : 2,
					"numoutlets" : 1,
					"outlettype" : [ "multichannelsignal" ],
					"patching_rect" : [ 170.78125, 736.517354142665795, 142.0, 19.0 ],
					"text" : "mc.mixdown~ @autogain 1"
				}

			}
, 			{
				"box" : 				{
					"id" : "obj-83",
					"maxclass" : "live.dial",
					"numinlets" : 1,
					"numoutlets" : 2,
					"outlettype" : [ "", "float" ],
					"parameter_enable" : 1,
					"patching_rect" : [ 254.59732586145401, 543.71969265460973, 41.0, 48.0 ],
					"saved_attribute_attributes" : 					{
						"textcolor" : 						{
							"expression" : ""
						}
,
						"valueof" : 						{
							"parameter_longname" : "live.dial[4]",
							"parameter_mmax" : 12.0,
							"parameter_mmin" : -12.0,
							"parameter_shortname" : "pitchshift",
							"parameter_type" : 0,
							"parameter_unitstyle" : 0
						}

					}
,
					"textcolor" : [ 1.0, 1.0, 1.0, 1.0 ],
					"varname" : "live.dial[4]"
				}

			}
, 			{
				"box" : 				{
					"id" : "obj-80",
					"maxclass" : "newobj",
					"numinlets" : 2,
					"numoutlets" : 1,
					"outlettype" : [ "multichannelsignal" ],
					"patching_rect" : [ 131.126723473072047, 778.943417158126749, 58.654526526927953, 19.0 ],
					"text" : "mc.gate~"
				}

			}
, 			{
				"box" : 				{
					"id" : "obj-81",
					"maxclass" : "toggle",
					"numinlets" : 1,
					"numoutlets" : 1,
					"outlettype" : [ "int" ],
					"parameter_enable" : 0,
					"patching_rect" : [ 131.126723473072047, 734.017354142665795, 24.0, 24.0 ]
				}

			}
, 			{
				"box" : 				{
					"id" : "obj-82",
					"maxclass" : "mc.ezdac~",
					"numinlets" : 1,
					"numoutlets" : 0,
					"patching_rect" : [ 131.126723473072047, 821.42218217134473, 45.0, 45.0 ]
				}

			}
, 			{
				"box" : 				{
					"id" : "obj-79",
					"maxclass" : "newobj",
					"numinlets" : 1,
					"numoutlets" : 1,
					"outlettype" : [ "" ],
					"patching_rect" : [ 402.553601670265209, 651.009193842411037, 79.0, 19.0 ],
					"text" : "prepend mode"
				}

			}
, 			{
				"box" : 				{
					"id" : "obj-77",
					"maxclass" : "live.menu",
					"numinlets" : 1,
					"numoutlets" : 3,
					"outlettype" : [ "", "", "float" ],
					"parameter_enable" : 1,
					"patching_rect" : [ 368.63254897594453, 620.389842588901502, 86.842105388641357, 15.0 ],
					"saved_attribute_attributes" : 					{
						"valueof" : 						{
							"parameter_enum" : [ "basic", "extremestretch", "monophonic", "rhythmic" ],
							"parameter_longname" : "live.menu",
							"parameter_mmax" : 3,
							"parameter_shortname" : "live.menu",
							"parameter_type" : 2
						}

					}
,
					"varname" : "live.menu"
				}

			}
, 			{
				"box" : 				{
					"id" : "obj-76",
					"maxclass" : "newobj",
					"numinlets" : 3,
					"numoutlets" : 1,
					"outlettype" : [ "" ],
					"patching_rect" : [ 170.78125, 600.926754493713361, 74.0, 19.0 ],
					"text" : "clip 0.01 0.99"
				}

			}
, 			{
				"box" : 				{
					"id" : "obj-75",
					"maxclass" : "live.dial",
					"numinlets" : 1,
					"numoutlets" : 2,
					"outlettype" : [ "", "float" ],
					"parameter_enable" : 1,
					"patching_rect" : [ 170.78125, 543.71969265460973, 41.0, 48.0 ],
					"saved_attribute_attributes" : 					{
						"textcolor" : 						{
							"expression" : ""
						}
,
						"valueof" : 						{
							"parameter_longname" : "live.dial[3]",
							"parameter_mmax" : 1.0,
							"parameter_shortname" : "stretch",
							"parameter_type" : 0,
							"parameter_unitstyle" : 1
						}

					}
,
					"textcolor" : [ 1.0, 1.0, 1.0, 1.0 ],
					"varname" : "live.dial[3]"
				}

			}
, 			{
				"box" : 				{
					"id" : "obj-73",
					"maxclass" : "newobj",
					"numinlets" : 1,
					"numoutlets" : 1,
					"outlettype" : [ "" ],
					"patching_rect" : [ 254.59732586145401, 651.009193842411037, 95.0, 19.0 ],
					"text" : "prepend pitchshift"
				}

			}
, 			{
				"box" : 				{
					"buffername" : "padbuff",
					"id" : "obj-72",
					"maxclass" : "waveform~",
					"numinlets" : 5,
					"numoutlets" : 6,
					"outlettype" : [ "float", "float", "float", "float", "list", "" ],
					"patching_rect" : [ 347.053601670265209, 415.177651977539085, 256.0, 64.0 ]
				}

			}
, 			{
				"box" : 				{
					"id" : "obj-68",
					"maxclass" : "newobj",
					"numinlets" : 1,
					"numoutlets" : 1,
					"outlettype" : [ "signal" ],
					"patching_rect" : [ 170.78125, 625.991545171737698, 41.0, 19.0 ],
					"text" : "sig~ 1."
				}

			}
, 			{
				"box" : 				{
					"id" : "obj-64",
					"maxclass" : "newobj",
					"numinlets" : 1,
					"numoutlets" : 2,
					"outlettype" : [ "float", "bang" ],
					"patching_rect" : [ 177.053601670265209, 443.884548103809379, 101.0, 19.0 ],
					"text" : "buffer~ bb 3000 16"
				}

			}
, 			{
				"box" : 				{
					"buffername" : "bb",
					"id" : "obj-63",
					"maxclass" : "waveform~",
					"numinlets" : 5,
					"numoutlets" : 6,
					"outlettype" : [ "float", "float", "float", "float", "list", "" ],
					"patching_rect" : [ 347.249614806175202, 488.278632714748369, 256.0, 64.0 ]
				}

			}
, 			{
				"box" : 				{
					"id" : "obj-62",
					"maxclass" : "newobj",
					"numinlets" : 3,
					"numoutlets" : 1,
					"outlettype" : [ "signal" ],
					"patching_rect" : [ 177.053601670265209, 357.006054668426486, 139.0, 19.0 ],
					"text" : "mc.record~ bb 16 @loop 1"
				}

			}
, 			{
				"box" : 				{
					"id" : "obj-61",
					"maxclass" : "newobj",
					"numinlets" : 2,
					"numoutlets" : 1,
					"outlettype" : [ "multichannelsignal" ],
					"patching_rect" : [ 65.911115591526027, 313.896565644741031, 54.0, 19.0 ],
					"text" : "mc.gate~"
				}

			}
, 			{
				"box" : 				{
					"id" : "obj-60",
					"maxclass" : "toggle",
					"numinlets" : 1,
					"numoutlets" : 1,
					"outlettype" : [ "int" ],
					"parameter_enable" : 0,
					"patching_rect" : [ 65.911115591526027, 263.244570982456139, 24.0, 24.0 ]
				}

			}
, 			{
				"box" : 				{
					"id" : "obj-58",
					"maxclass" : "mc.ezdac~",
					"numinlets" : 1,
					"numoutlets" : 0,
					"patching_rect" : [ 65.911115591526027, 342.281370313167542, 45.0, 45.0 ]
				}

			}
, 			{
				"box" : 				{
					"fontface" : 0,
					"fontname" : "JetBrainsMono Nerd Font Medium",
					"fontsize" : 11.0,
					"id" : "obj-55",
					"maxclass" : "number~",
					"mode" : 2,
					"numinlets" : 2,
					"numoutlets" : 2,
					"outlettype" : [ "signal", "float" ],
					"patching_rect" : [ 177.053601670265209, 383.067562913894676, 56.0, 19.0 ],
					"sig" : 0.0
				}

			}
, 			{
				"box" : 				{
					"id" : "obj-53",
					"maxclass" : "newobj",
					"numinlets" : 1,
					"numoutlets" : 0,
					"patching_rect" : [ 207.553601670265209, 149.054447321891757, 40.0, 19.0 ],
					"text" : "s pitch"
				}

			}
, 			{
				"box" : 				{
					"id" : "obj-47",
					"maxclass" : "newobj",
					"numinlets" : 1,
					"numoutlets" : 1,
					"outlettype" : [ "bang" ],
					"patching_rect" : [ 105.369132101535797, 226.451260228157025, 54.0, 19.0 ],
					"text" : "loadbang"
				}

			}
, 			{
				"box" : 				{
					"id" : "obj-46",
					"maxclass" : "toggle",
					"numinlets" : 1,
					"numoutlets" : 1,
					"outlettype" : [ "int" ],
					"parameter_enable" : 0,
					"patching_rect" : [ 105.369132101535797, 263.244570982456139, 24.0, 24.0 ]
				}

			}
, 			{
				"box" : 				{
					"id" : "obj-43",
					"maxclass" : "newobj",
					"numinlets" : 2,
					"numoutlets" : 1,
					"outlettype" : [ "multichannelsignal" ],
					"patching_rect" : [ 522.449948844909613, 273.195186984538964, 142.0, 19.0 ],
					"text" : "mc.mixdown~ @autogain 1"
				}

			}
, 			{
				"box" : 				{
					"id" : "obj-41",
					"maxclass" : "live.dial",
					"numinlets" : 1,
					"numoutlets" : 2,
					"outlettype" : [ "", "float" ],
					"parameter_enable" : 1,
					"patching_rect" : [ 82.411115591526027, 46.12272592782972, 59.709676861763, 48.0 ],
					"saved_attribute_attributes" : 					{
						"textcolor" : 						{
							"expression" : ""
						}
,
						"valueof" : 						{
							"parameter_initial" : [ 10.236220472440943 ],
							"parameter_initial_enable" : 1,
							"parameter_longname" : "live.dial[2]",
							"parameter_mmax" : 50.0,
							"parameter_shortname" : "Hz",
							"parameter_type" : 0,
							"parameter_unitstyle" : 1
						}

					}
,
					"textcolor" : [ 1.0, 1.0, 1.0, 1.0 ],
					"varname" : "live.dial[2]"
				}

			}
, 			{
				"box" : 				{
					"id" : "obj-42",
					"maxclass" : "newobj",
					"numinlets" : 1,
					"numoutlets" : 1,
					"outlettype" : [ "" ],
					"patching_rect" : [ 82.411115591526027, 106.554447321891757, 65.0, 19.0 ],
					"text" : "prepend Hz"
				}

			}
, 			{
				"box" : 				{
					"displaychan" : 5,
					"id" : "obj-39",
					"maxclass" : "scope~",
					"numinlets" : 2,
					"numoutlets" : 0,
					"patching_rect" : [ 347.053601670265209, 273.195186984538964, 130.0, 130.0 ],
					"range" : [ 0.0, 1.0 ]
				}

			}
, 			{
				"box" : 				{
					"id" : "obj-38",
					"maxclass" : "newobj",
					"numinlets" : 1,
					"numoutlets" : 1,
					"outlettype" : [ "" ],
					"patching_rect" : [ 424.222587914466885, 106.554447321891757, 134.0, 19.0 ],
					"text" : "prepend buffersamplerate"
				}

			}
, 			{
				"box" : 				{
					"id" : "obj-32",
					"maxclass" : "newobj",
					"numinlets" : 0,
					"numoutlets" : 1,
					"outlettype" : [ "" ],
					"patching_rect" : [ 424.222587914466885, 72.972835206985451, 98.0, 19.0 ],
					"text" : "r buffersamplerate"
				}

			}
, 			{
				"box" : 				{
					"id" : "obj-30",
					"maxclass" : "newobj",
					"numinlets" : 1,
					"numoutlets" : 9,
					"outlettype" : [ "float", "list", "float", "float", "float", "float", "float", "", "int" ],
					"patching_rect" : [ 810.509543279409399, 270.784281549453624, 103.0, 19.0 ],
					"text" : "info~ padbuff"
				}

			}
, 			{
				"box" : 				{
					"id" : "obj-29",
					"maxclass" : "newobj",
					"numinlets" : 1,
					"numoutlets" : 0,
					"patching_rect" : [ 810.509543279409399, 304.329119682311898, 99.0, 19.0 ],
					"text" : "s buffersamplerate"
				}

			}
, 			{
				"box" : 				{
					"fontface" : 0,
					"fontname" : "JetBrainsMono Nerd Font Medium",
					"fontsize" : 11.0,
					"id" : "obj-28",
					"maxclass" : "mc.number~",
					"mode" : 2,
					"numinlets" : 2,
					"numoutlets" : 3,
					"outlettype" : [ "multichannelsignal", "float", "int" ],
					"patching_rect" : [ 522.449948844909613, 319.006054668426486, 56.0, 31.0 ],
					"sig" : [ 0.0, 0.0 ]
				}

			}
, 			{
				"box" : 				{
					"id" : "obj-27",
					"maxclass" : "live.dial",
					"numinlets" : 1,
					"numoutlets" : 2,
					"outlettype" : [ "", "float" ],
					"parameter_enable" : 1,
					"patching_rect" : [ 299.923921232223506, 43.972835206985451, 59.709676861763, 48.0 ],
					"saved_attribute_attributes" : 					{
						"textcolor" : 						{
							"expression" : ""
						}
,
						"valueof" : 						{
							"parameter_initial" : [ 0.496062992125985 ],
							"parameter_initial_enable" : 1,
							"parameter_longname" : "live.dial[1]",
							"parameter_mmax" : 1.0,
							"parameter_shortname" : "noiseamnt",
							"parameter_type" : 0,
							"parameter_unitstyle" : 1
						}

					}
,
					"textcolor" : [ 1.0, 1.0, 1.0, 1.0 ],
					"varname" : "live.dial[1]"
				}

			}
, 			{
				"box" : 				{
					"id" : "obj-26",
					"maxclass" : "newobj",
					"numinlets" : 1,
					"numoutlets" : 1,
					"outlettype" : [ "" ],
					"patching_rect" : [ 299.923921232223506, 106.554447321891757, 103.0, 19.0 ],
					"text" : "prepend noiseamnt"
				}

			}
, 			{
				"box" : 				{
					"id" : "obj-22",
					"maxclass" : "live.dial",
					"numinlets" : 1,
					"numoutlets" : 2,
					"outlettype" : [ "", "float" ],
					"parameter_enable" : 1,
					"patching_rect" : [ 176.053601670265209, 44.103515639305101, 41.0, 48.0 ],
					"saved_attribute_attributes" : 					{
						"textcolor" : 						{
							"expression" : ""
						}
,
						"valueof" : 						{
							"parameter_longname" : "live.dial",
							"parameter_mmax" : 12.0,
							"parameter_mmin" : -12.0,
							"parameter_shortname" : "pitch",
							"parameter_type" : 0,
							"parameter_unitstyle" : 0
						}

					}
,
					"textcolor" : [ 1.0, 1.0, 1.0, 1.0 ],
					"varname" : "live.dial"
				}

			}
, 			{
				"box" : 				{
					"id" : "obj-19",
					"maxclass" : "newobj",
					"numinlets" : 1,
					"numoutlets" : 1,
					"outlettype" : [ "" ],
					"patching_rect" : [ 176.053601670265209, 106.554447321891757, 103.0, 19.0 ],
					"text" : "expr pow(2\\, $f1/12)"
				}

			}
, 			{
				"box" : 				{
					"id" : "obj-16",
					"maxclass" : "newobj",
					"numinlets" : 2,
					"numoutlets" : 1,
					"outlettype" : [ "multichannelsignal" ],
					"patching_rect" : [ 177.053601670265209, 265.744570982456139, 194.0, 19.0 ],
					"text" : "mc.mixdown~ @autogain 1 @chans 2"
				}

			}
, 			{
				"box" : 				{
					"id" : "obj-12",
					"maxclass" : "newobj",
					"numinlets" : 2,
					"numoutlets" : 1,
					"outlettype" : [ "signal" ],
					"patcher" : 					{
						"fileversion" : 1,
						"appversion" : 						{
							"major" : 8,
							"minor" : 5,
							"revision" : 6,
							"architecture" : "x64",
							"modernui" : 1
						}
,
						"classnamespace" : "dsp.gen",
						"rect" : [ 32.0, 85.0, 2189.0, 1289.0 ],
						"bglocked" : 0,
						"openinpresentation" : 0,
						"default_fontsize" : 11.0,
						"default_fontface" : 0,
						"default_fontname" : "JetBrainsMono Nerd Font Medium",
						"gridonopen" : 1,
						"gridsize" : [ 15.0, 15.0 ],
						"gridsnaponopen" : 1,
						"objectsnaponopen" : 1,
						"statusbarvisible" : 2,
						"toolbarvisible" : 1,
						"lefttoolbarpinned" : 0,
						"toptoolbarpinned" : 0,
						"righttoolbarpinned" : 0,
						"bottomtoolbarpinned" : 0,
						"toolbars_unpinned_last_save" : 0,
						"tallnewobj" : 0,
						"boxanimatetime" : 50,
						"enablehscroll" : 1,
						"enablevscroll" : 1,
						"devicewidth" : 0.0,
						"description" : "",
						"digest" : "",
						"tags" : "",
						"style" : "",
						"subpatcher_template" : "darkMode",
						"assistshowspatchername" : 0,
						"boxes" : [ 							{
								"box" : 								{
									"id" : "obj-1",
									"maxclass" : "newobj",
									"numinlets" : 0,
									"numoutlets" : 1,
									"outlettype" : [ "" ],
									"patching_rect" : [ 50.0, 14.0, 26.0, 19.0 ],
									"text" : "in 1"
								}

							}
, 							{
								"box" : 								{
									"id" : "obj-2",
									"maxclass" : "newobj",
									"numinlets" : 0,
									"numoutlets" : 1,
									"outlettype" : [ "" ],
									"patching_rect" : [ 305.0, 14.0, 26.0, 19.0 ],
									"text" : "in 2"
								}

							}
, 							{
								"box" : 								{
									"id" : "obj-3",
									"maxclass" : "newobj",
									"numinlets" : 2,
									"numoutlets" : 1,
									"outlettype" : [ "" ],
									"patching_rect" : [ 176.0, 149.0, 29.5, 19.0 ],
									"text" : "+"
								}

							}
, 							{
								"box" : 								{
									"id" : "obj-4",
									"maxclass" : "newobj",
									"numinlets" : 1,
									"numoutlets" : 0,
									"patching_rect" : [ 176.0, 418.0, 33.0, 19.0 ],
									"text" : "out 1"
								}

							}
 ],
						"lines" : [ 							{
								"patchline" : 								{
									"destination" : [ "obj-3", 0 ],
									"source" : [ "obj-1", 0 ]
								}

							}
, 							{
								"patchline" : 								{
									"destination" : [ "obj-3", 1 ],
									"source" : [ "obj-2", 0 ]
								}

							}
, 							{
								"patchline" : 								{
									"destination" : [ "obj-4", 0 ],
									"source" : [ "obj-3", 0 ]
								}

							}
 ],
						"default_bgcolor" : [ 0.149019607843137, 0.141176470588235, 0.141176470588235, 1.0 ],
						"accentcolor" : [ 0.149019607843137, 0.141176470588235, 0.141176470588235, 1.0 ],
						"textcolor" : [ 1.0, 1.0, 1.0, 1.0 ],
						"bgcolor" : [ 0.074509803921569, 0.066666666666667, 0.066666666666667, 1.0 ],
						"editing_bgcolor" : [ 0.074509803921569, 0.066666666666667, 0.066666666666667, 0.741176470588235 ]
					}
,
					"patching_rect" : [ 273.75281298160553, 786.462829866409265, 93.0, 19.0 ],
					"text" : "gen~ @title revrb"
				}

			}
, 			{
				"box" : 				{
					"data" : 					{
						"patcher" : 						{
							"fileversion" : 1,
							"appversion" : 							{
								"major" : 8,
								"minor" : 5,
								"revision" : 6,
								"architecture" : "x64",
								"modernui" : 1
							}
,
							"classnamespace" : "dsp.gen",
							"rect" : [ 90.0, 87.0, 1316.0, 779.0 ],
							"bglocked" : 0,
							"openinpresentation" : 0,
							"default_fontsize" : 11.0,
							"default_fontface" : 0,
							"default_fontname" : "JetBrainsMono Nerd Font Medium",
							"gridonopen" : 1,
							"gridsize" : [ 15.0, 15.0 ],
							"gridsnaponopen" : 1,
							"objectsnaponopen" : 1,
							"statusbarvisible" : 2,
							"toolbarvisible" : 1,
							"lefttoolbarpinned" : 0,
							"toptoolbarpinned" : 0,
							"righttoolbarpinned" : 0,
							"bottomtoolbarpinned" : 0,
							"toolbars_unpinned_last_save" : 0,
							"tallnewobj" : 0,
							"boxanimatetime" : 50,
							"enablehscroll" : 1,
							"enablevscroll" : 1,
							"devicewidth" : 0.0,
							"description" : "",
							"digest" : "",
							"tags" : "",
							"style" : "",
							"subpatcher_template" : "darkMode",
							"assistshowspatchername" : 0,
							"boxes" : [ 								{
									"box" : 									{
										"maxclass" : "newobj",
										"text" : "gen @title randchance",
										"outlettype" : [ "" ],
										"id" : "obj-36",
										"numinlets" : 2,
										"patching_rect" : [ 165.241949911117558, 120.124877758026116, 119.0, 19.0 ],
										"numoutlets" : 1,
										"patcher" : 										{
											"fileversion" : 1,
											"appversion" : 											{
												"major" : 8,
												"minor" : 5,
												"revision" : 6,
												"architecture" : "x64",
												"modernui" : 1
											}
,
											"classnamespace" : "dsp.gen",
											"rect" : [ 32.0, 85.0, 2189.0, 1289.0 ],
											"bglocked" : 0,
											"openinpresentation" : 0,
											"default_fontsize" : 11.0,
											"default_fontface" : 0,
											"default_fontname" : "JetBrainsMono Nerd Font Medium",
											"gridonopen" : 1,
											"gridsize" : [ 15.0, 15.0 ],
											"gridsnaponopen" : 1,
											"objectsnaponopen" : 1,
											"statusbarvisible" : 2,
											"toolbarvisible" : 1,
											"lefttoolbarpinned" : 0,
											"toptoolbarpinned" : 0,
											"righttoolbarpinned" : 0,
											"bottomtoolbarpinned" : 0,
											"toolbars_unpinned_last_save" : 0,
											"tallnewobj" : 0,
											"boxanimatetime" : 50,
											"enablehscroll" : 1,
											"enablevscroll" : 1,
											"devicewidth" : 0.0,
											"description" : "",
											"digest" : "",
											"tags" : "",
											"style" : "",
											"subpatcher_template" : "darkMode",
											"assistshowspatchername" : 0,
											"boxes" : [ 												{
													"box" : 													{
														"maxclass" : "newobj",
														"text" : "in 1",
														"outlettype" : [ "" ],
														"id" : "obj-1",
														"numinlets" : 0,
														"patching_rect" : [ 50.0, 14.0, 26.0, 19.0 ],
														"numoutlets" : 1
													}

												}
, 												{
													"box" : 													{
														"maxclass" : "newobj",
														"text" : "in 2",
														"outlettype" : [ "" ],
														"id" : "obj-2",
														"numinlets" : 0,
														"patching_rect" : [ 305.0, 14.0, 26.0, 19.0 ],
														"numoutlets" : 1
													}

												}
, 												{
													"box" : 													{
														"maxclass" : "newobj",
														"text" : "+",
														"outlettype" : [ "" ],
														"id" : "obj-3",
														"numinlets" : 2,
														"patching_rect" : [ 176.0, 149.0, 29.5, 19.0 ],
														"numoutlets" : 1
													}

												}
, 												{
													"box" : 													{
														"maxclass" : "newobj",
														"text" : "out 1",
														"id" : "obj-4",
														"numinlets" : 1,
														"patching_rect" : [ 176.0, 418.0, 33.0, 19.0 ],
														"numoutlets" : 0
													}

												}
 ],
											"lines" : [ 												{
													"patchline" : 													{
														"source" : [ "obj-3", 0 ],
														"destination" : [ "obj-4", 0 ]
													}

												}
, 												{
													"patchline" : 													{
														"source" : [ "obj-2", 0 ],
														"destination" : [ "obj-3", 1 ]
													}

												}
, 												{
													"patchline" : 													{
														"source" : [ "obj-1", 0 ],
														"destination" : [ "obj-3", 0 ]
													}

												}
 ],
											"default_bgcolor" : [ 0.149019607843137, 0.141176470588235, 0.141176470588235, 1.0 ],
											"accentcolor" : [ 0.149019607843137, 0.141176470588235, 0.141176470588235, 1.0 ],
											"textcolor" : [ 1.0, 1.0, 1.0, 1.0 ],
											"bgcolor" : [ 0.074509803921569, 0.066666666666667, 0.066666666666667, 1.0 ],
											"editing_bgcolor" : [ 0.074509803921569, 0.066666666666667, 0.066666666666667, 0.741176470588235 ]
										}

									}

								}
, 								{
									"box" : 									{
										"maxclass" : "newobj",
										"text" : "wrap 0 1",
										"outlettype" : [ "" ],
										"id" : "obj-34",
										"numinlets" : 1,
										"patching_rect" : [ 42.404305324554457, 421.494430139064775, 51.0, 19.0 ],
										"numoutlets" : 1
									}

								}
, 								{
									"box" : 									{
										"maxclass" : "newobj",
										"text" : "s ratio",
										"id" : "obj-29",
										"numinlets" : 1,
										"patching_rect" : [ 42.821069662571006, 96.949879148006403, 38.0, 19.0 ],
										"numoutlets" : 0
									}

								}
, 								{
									"box" : 									{
										"maxclass" : "newobj",
										"text" : "setparam thresh",
										"outlettype" : [ "" ],
										"id" : "obj-24",
										"numinlets" : 1,
										"patching_rect" : [ 295.263018245697026, 227.819241933822639, 88.0, 19.0 ],
										"numoutlets" : 1
									}

								}
, 								{
									"box" : 									{
										"maxclass" : "newobj",
										"text" : "setparam Hz",
										"outlettype" : [ "" ],
										"id" : "obj-23",
										"numinlets" : 1,
										"patching_rect" : [ 206.125423815250372, 225.117155745029436, 71.0, 19.0 ],
										"numoutlets" : 1
									}

								}
, 								{
									"box" : 									{
										"maxclass" : "newobj",
										"text" : "param thresh 0.2 @min 0.01 @max 0.99",
										"linecount" : 5,
										"outlettype" : [ "" ],
										"id" : "obj-22",
										"numinlets" : 0,
										"patching_rect" : [ 295.263018245697083, 155.152410187721216, 63.063293039798737, 63.0 ],
										"numoutlets" : 1
									}

								}
, 								{
									"box" : 									{
										"maxclass" : "newobj",
										"text" : "param Hz 10 @min 0 @max samplerate/4",
										"linecount" : 5,
										"outlettype" : [ "" ],
										"id" : "obj-21",
										"numinlets" : 0,
										"patching_rect" : [ 206.125423815250372, 155.152410187721216, 69.486580834388803, 63.0 ],
										"numoutlets" : 1
									}

								}
, 								{
									"box" : 									{
										"maxclass" : "newobj",
										"text" : "gen @title noiseinput",
										"outlettype" : [ "" ],
										"id" : "obj-20",
										"numinlets" : 1,
										"patching_rect" : [ 164.612004649639118, 266.691265847682928, 111.0, 19.0 ],
										"numoutlets" : 1,
										"patcher" : 										{
											"fileversion" : 1,
											"appversion" : 											{
												"major" : 8,
												"minor" : 5,
												"revision" : 6,
												"architecture" : "x64",
												"modernui" : 1
											}
,
											"classnamespace" : "dsp.gen",
											"rect" : [ 90.0, 87.0, 1316.0, 779.0 ],
											"bglocked" : 0,
											"openinpresentation" : 0,
											"default_fontsize" : 11.0,
											"default_fontface" : 0,
											"default_fontname" : "JetBrainsMono Nerd Font Medium",
											"gridonopen" : 1,
											"gridsize" : [ 15.0, 15.0 ],
											"gridsnaponopen" : 1,
											"objectsnaponopen" : 1,
											"statusbarvisible" : 2,
											"toolbarvisible" : 1,
											"lefttoolbarpinned" : 0,
											"toptoolbarpinned" : 0,
											"righttoolbarpinned" : 0,
											"bottomtoolbarpinned" : 0,
											"toolbars_unpinned_last_save" : 0,
											"tallnewobj" : 0,
											"boxanimatetime" : 50,
											"enablehscroll" : 1,
											"enablevscroll" : 1,
											"devicewidth" : 0.0,
											"description" : "",
											"digest" : "",
											"tags" : "",
											"style" : "",
											"subpatcher_template" : "darkMode",
											"assistshowspatchername" : 0,
											"boxes" : [ 												{
													"box" : 													{
														"maxclass" : "newobj",
														"text" : "setparam thresh",
														"outlettype" : [ "" ],
														"id" : "obj-16",
														"numinlets" : 1,
														"patching_rect" : [ 287.0, 83.836773738861098, 88.0, 19.0 ],
														"numoutlets" : 1
													}

												}
, 												{
													"box" : 													{
														"maxclass" : "newobj",
														"text" : "param thresh @default 0.2 @min 0.01 @max 0.99",
														"linecount" : 4,
														"outlettype" : [ "" ],
														"id" : "obj-15",
														"numinlets" : 0,
														"patching_rect" : [ 287.0, 20.961745500564575, 82.5, 52.0 ],
														"numoutlets" : 1
													}

												}
, 												{
													"box" : 													{
														"maxclass" : "newobj",
														"text" : "interp @mode linear",
														"outlettype" : [ "" ],
														"id" : "obj-14",
														"numinlets" : 3,
														"patching_rect" : [ 31.009339923858647, 198.422509708404561, 167.016396045684814, 19.0 ],
														"numoutlets" : 1
													}

												}
, 												{
													"box" : 													{
														"maxclass" : "newobj",
														"text" : "history",
														"outlettype" : [ "" ],
														"id" : "obj-13",
														"numinlets" : 1,
														"patching_rect" : [ 105.017537946701054, 129.850872750282292, 41.0, 19.0 ],
														"numoutlets" : 1
													}

												}
, 												{
													"box" : 													{
														"maxclass" : "newobj",
														"text" : "latch",
														"outlettype" : [ "" ],
														"id" : "obj-12",
														"numinlets" : 2,
														"patching_rect" : [ 179.343113307952876, 160.168684258460985, 32.0, 19.0 ],
														"numoutlets" : 1
													}

												}
, 												{
													"box" : 													{
														"maxclass" : "newobj",
														"text" : "latch",
														"outlettype" : [ "" ],
														"id" : "obj-11",
														"numinlets" : 2,
														"patching_rect" : [ 105.017537946701054, 160.168684258460985, 32.0, 19.0 ],
														"numoutlets" : 1
													}

												}
, 												{
													"box" : 													{
														"maxclass" : "newobj",
														"text" : "in 1 random_source",
														"outlettype" : [ "" ],
														"id" : "obj-10",
														"numinlets" : 0,
														"patching_rect" : [ 179.343113307952876, 83.836773738861098, 106.0, 19.0 ],
														"numoutlets" : 1
													}

												}
, 												{
													"box" : 													{
														"maxclass" : "newobj",
														"text" : "phasor",
														"outlettype" : [ "" ],
														"id" : "obj-9",
														"numinlets" : 2,
														"patching_rect" : [ 31.009339923858647, 79.836773738861098, 42.0, 19.0 ],
														"numoutlets" : 1
													}

												}
, 												{
													"box" : 													{
														"maxclass" : "newobj",
														"text" : "param Hz 10 @min 0 @max samplerate/4",
														"outlettype" : [ "" ],
														"id" : "obj-8",
														"numinlets" : 0,
														"patching_rect" : [ 31.009339923858647, 37.461745500564575, 214.0, 19.0 ],
														"numoutlets" : 1
													}

												}
, 												{
													"box" : 													{
														"maxclass" : "newobj",
														"text" : "gen @title ramp2trig",
														"outlettype" : [ "" ],
														"id" : "obj-7",
														"numinlets" : 1,
														"patching_rect" : [ 192.343113307952876, 116.205953054428107, 108.0, 19.0 ],
														"numoutlets" : 1,
														"patcher" : 														{
															"fileversion" : 1,
															"appversion" : 															{
																"major" : 8,
																"minor" : 5,
																"revision" : 6,
																"architecture" : "x64",
																"modernui" : 1
															}
,
															"classnamespace" : "dsp.gen",
															"rect" : [ 34.0, 62.0, 1372.0, 804.0 ],
															"bglocked" : 0,
															"openinpresentation" : 0,
															"default_fontsize" : 11.0,
															"default_fontface" : 0,
															"default_fontname" : "JetBrainsMono Nerd Font Medium",
															"gridonopen" : 1,
															"gridsize" : [ 15.0, 15.0 ],
															"gridsnaponopen" : 1,
															"objectsnaponopen" : 1,
															"statusbarvisible" : 2,
															"toolbarvisible" : 1,
															"lefttoolbarpinned" : 0,
															"toptoolbarpinned" : 0,
															"righttoolbarpinned" : 0,
															"bottomtoolbarpinned" : 0,
															"toolbars_unpinned_last_save" : 0,
															"tallnewobj" : 0,
															"boxanimatetime" : 50,
															"enablehscroll" : 1,
															"enablevscroll" : 1,
															"devicewidth" : 0.0,
															"description" : "",
															"digest" : "",
															"tags" : "",
															"style" : "",
															"subpatcher_template" : "darkMode",
															"assistshowspatchername" : 0,
															"boxes" : [ 																{
																	"box" : 																	{
																		"maxclass" : "newobj",
																		"text" : "> 0",
																		"outlettype" : [ "" ],
																		"id" : "obj-15",
																		"numinlets" : 1,
																		"patching_rect" : [ 28.685052008628844, 265.414957768917077, 24.0, 19.0 ],
																		"numoutlets" : 1
																	}

																}
, 																{
																	"box" : 																	{
																		"maxclass" : "newobj",
																		"text" : "change",
																		"outlettype" : [ "" ],
																		"id" : "obj-14",
																		"numinlets" : 1,
																		"patching_rect" : [ 28.685052008628844, 231.634056868553159, 45.0, 19.0 ],
																		"numoutlets" : 1
																	}

																}
, 																{
																	"box" : 																	{
																		"maxclass" : "newobj",
																		"text" : "param thresh @default 0.2 @min 0.01 @max 0.99",
																		"linecount" : 2,
																		"outlettype" : [ "" ],
																		"id" : "obj-13",
																		"numinlets" : 0,
																		"patching_rect" : [ 102.245052008628846, 225.015497285127651, 150.0, 30.0 ],
																		"numoutlets" : 1
																	}

																}
, 																{
																	"box" : 																	{
																		"maxclass" : "newobj",
																		"text" : "> thresh",
																		"outlettype" : [ "" ],
																		"id" : "obj-12",
																		"numinlets" : 1,
																		"patching_rect" : [ 28.685052008628844, 196.046579407453549, 49.0, 19.0 ],
																		"numoutlets" : 1
																	}

																}
, 																{
																	"box" : 																	{
																		"maxclass" : "newobj",
																		"text" : "abs",
																		"outlettype" : [ "" ],
																		"id" : "obj-11",
																		"numinlets" : 1,
																		"patching_rect" : [ 28.685052008628844, 165.869912720918649, 26.0, 19.0 ],
																		"numoutlets" : 1
																	}

																}
, 																{
																	"box" : 																	{
																		"maxclass" : "newobj",
																		"text" : "/",
																		"outlettype" : [ "" ],
																		"id" : "obj-10",
																		"numinlets" : 2,
																		"patching_rect" : [ 28.685052008628844, 132.529642462730408, 82.060000000000002, 19.0 ],
																		"numoutlets" : 1
																	}

																}
, 																{
																	"box" : 																	{
																		"maxclass" : "newobj",
																		"text" : "history",
																		"outlettype" : [ "" ],
																		"id" : "obj-9",
																		"numinlets" : 1,
																		"patching_rect" : [ 102.245052008628846, 68.11495776891708, 41.0, 19.0 ],
																		"numoutlets" : 1
																	}

																}
, 																{
																	"box" : 																	{
																		"maxclass" : "newobj",
																		"text" : "+",
																		"outlettype" : [ "" ],
																		"id" : "obj-8",
																		"numinlets" : 2,
																		"patching_rect" : [ 91.745052008628846, 103.259462270736691, 29.5, 19.0 ],
																		"numoutlets" : 1
																	}

																}
, 																{
																	"box" : 																	{
																		"maxclass" : "newobj",
																		"text" : "-",
																		"outlettype" : [ "" ],
																		"id" : "obj-7",
																		"numinlets" : 2,
																		"patching_rect" : [ 28.685052008628844, 101.899462270736691, 29.5, 19.0 ],
																		"numoutlets" : 1
																	}

																}
, 																{
																	"box" : 																	{
																		"maxclass" : "comment",
																		"text" : "credit to Graham Wakefield from GO book and package !",
																		"linecount" : 2,
																		"id" : "obj-6",
																		"numinlets" : 1,
																		"patching_rect" : [ 102.245052008628846, 165.869912720918649, 150.0, 28.0 ],
																		"numoutlets" : 0
																	}

																}
, 																{
																	"box" : 																	{
																		"maxclass" : "newobj",
																		"text" : "in 1 ramp",
																		"outlettype" : [ "" ],
																		"id" : "obj-1",
																		"numinlets" : 0,
																		"patching_rect" : [ 28.685052008628844, 29.987069249153137, 54.0, 19.0 ],
																		"numoutlets" : 1
																	}

																}
, 																{
																	"box" : 																	{
																		"maxclass" : "newobj",
																		"text" : "out 1 trig",
																		"id" : "obj-4",
																		"numinlets" : 1,
																		"patching_rect" : [ 28.685052008628844, 299.141847461462021, 51.0, 19.0 ],
																		"numoutlets" : 0
																	}

																}
 ],
															"lines" : [ 																{
																	"patchline" : 																	{
																		"source" : [ "obj-15", 0 ],
																		"destination" : [ "obj-4", 0 ]
																	}

																}
, 																{
																	"patchline" : 																	{
																		"source" : [ "obj-14", 0 ],
																		"destination" : [ "obj-15", 0 ]
																	}

																}
, 																{
																	"patchline" : 																	{
																		"source" : [ "obj-12", 0 ],
																		"destination" : [ "obj-14", 0 ]
																	}

																}
, 																{
																	"patchline" : 																	{
																		"source" : [ "obj-11", 0 ],
																		"destination" : [ "obj-12", 0 ]
																	}

																}
, 																{
																	"patchline" : 																	{
																		"source" : [ "obj-10", 0 ],
																		"destination" : [ "obj-11", 0 ]
																	}

																}
, 																{
																	"patchline" : 																	{
																		"source" : [ "obj-8", 0 ],
																		"destination" : [ "obj-10", 1 ]
																	}

																}
, 																{
																	"patchline" : 																	{
																		"source" : [ "obj-7", 0 ],
																		"destination" : [ "obj-10", 0 ]
																	}

																}
, 																{
																	"patchline" : 																	{
																		"source" : [ "obj-1", 0 ],
																		"destination" : [ "obj-7", 0 ],
																		"order" : 2
																	}

																}
, 																{
																	"patchline" : 																	{
																		"source" : [ "obj-1", 0 ],
																		"destination" : [ "obj-8", 0 ],
																		"order" : 1
																	}

																}
, 																{
																	"patchline" : 																	{
																		"source" : [ "obj-9", 0 ],
																		"destination" : [ "obj-7", 1 ],
																		"order" : 1
																	}

																}
, 																{
																	"patchline" : 																	{
																		"source" : [ "obj-9", 0 ],
																		"destination" : [ "obj-8", 1 ],
																		"order" : 0
																	}

																}
, 																{
																	"patchline" : 																	{
																		"source" : [ "obj-1", 0 ],
																		"destination" : [ "obj-9", 0 ],
																		"order" : 0
																	}

																}
 ],
															"default_bgcolor" : [ 0.149019607843137, 0.141176470588235, 0.141176470588235, 1.0 ],
															"accentcolor" : [ 0.149019607843137, 0.141176470588235, 0.141176470588235, 1.0 ],
															"textcolor" : [ 1.0, 1.0, 1.0, 1.0 ],
															"bgcolor" : [ 0.074509803921569, 0.066666666666667, 0.066666666666667, 1.0 ],
															"editing_bgcolor" : [ 0.074509803921569, 0.066666666666667, 0.066666666666667, 0.741176470588235 ]
														}

													}

												}
, 												{
													"box" : 													{
														"maxclass" : "newobj",
														"text" : "out 1",
														"id" : "obj-4",
														"numinlets" : 1,
														"patching_rect" : [ 31.009339923858647, 232.350872750282292, 33.0, 19.0 ],
														"numoutlets" : 0
													}

												}
 ],
											"lines" : [ 												{
													"patchline" : 													{
														"source" : [ "obj-16", 0 ],
														"destination" : [ "obj-7", 0 ]
													}

												}
, 												{
													"patchline" : 													{
														"source" : [ "obj-15", 0 ],
														"destination" : [ "obj-16", 0 ]
													}

												}
, 												{
													"patchline" : 													{
														"source" : [ "obj-14", 0 ],
														"destination" : [ "obj-4", 0 ]
													}

												}
, 												{
													"patchline" : 													{
														"source" : [ "obj-13", 0 ],
														"destination" : [ "obj-11", 0 ]
													}

												}
, 												{
													"patchline" : 													{
														"source" : [ "obj-7", 0 ],
														"destination" : [ "obj-11", 1 ],
														"order" : 1
													}

												}
, 												{
													"patchline" : 													{
														"source" : [ "obj-12", 0 ],
														"destination" : [ "obj-13", 0 ],
														"midpoints" : [ 188.843113307952876, 179.882509708404541, 155.139339923858643, 179.882509708404541, 155.139339923858643, 120.393438935279846, 114.517537946701054, 120.393438935279846 ],
														"order" : 1
													}

												}
, 												{
													"patchline" : 													{
														"source" : [ "obj-12", 0 ],
														"destination" : [ "obj-14", 2 ],
														"order" : 0
													}

												}
, 												{
													"patchline" : 													{
														"source" : [ "obj-9", 0 ],
														"destination" : [ "obj-14", 0 ],
														"order" : 1
													}

												}
, 												{
													"patchline" : 													{
														"source" : [ "obj-11", 0 ],
														"destination" : [ "obj-14", 1 ]
													}

												}
, 												{
													"patchline" : 													{
														"source" : [ "obj-7", 0 ],
														"destination" : [ "obj-12", 1 ],
														"order" : 0
													}

												}
, 												{
													"patchline" : 													{
														"source" : [ "obj-9", 0 ],
														"destination" : [ "obj-7", 0 ],
														"order" : 0
													}

												}
, 												{
													"patchline" : 													{
														"source" : [ "obj-10", 0 ],
														"destination" : [ "obj-12", 0 ]
													}

												}
, 												{
													"patchline" : 													{
														"source" : [ "obj-8", 0 ],
														"destination" : [ "obj-9", 0 ]
													}

												}
 ],
											"default_bgcolor" : [ 0.149019607843137, 0.141176470588235, 0.141176470588235, 1.0 ],
											"accentcolor" : [ 0.149019607843137, 0.141176470588235, 0.141176470588235, 1.0 ],
											"textcolor" : [ 1.0, 1.0, 1.0, 1.0 ],
											"bgcolor" : [ 0.074509803921569, 0.066666666666667, 0.066666666666667, 1.0 ],
											"editing_bgcolor" : [ 0.074509803921569, 0.066666666666667, 0.066666666666667, 0.741176470588235 ]
										}

									}

								}
, 								{
									"box" : 									{
										"maxclass" : "newobj",
										"text" : "abs",
										"outlettype" : [ "" ],
										"id" : "obj-18",
										"numinlets" : 1,
										"patching_rect" : [ 164.612004649639118, 225.117155745029436, 26.0, 19.0 ],
										"numoutlets" : 1
									}

								}
, 								{
									"box" : 									{
										"maxclass" : "newobj",
										"text" : "*",
										"outlettype" : [ "" ],
										"id" : "obj-17",
										"numinlets" : 2,
										"patching_rect" : [ 154.112004649639118, 367.277356109619177, 29.5, 19.0 ],
										"numoutlets" : 1
									}

								}
, 								{
									"box" : 									{
										"maxclass" : "newobj",
										"text" : "out 2",
										"id" : "obj-15",
										"numinlets" : 1,
										"patching_rect" : [ 195.535442423820484, 456.098033065795903, 33.0, 19.0 ],
										"numoutlets" : 0
									}

								}
, 								{
									"box" : 									{
										"maxclass" : "newobj",
										"text" : "sample padbuff",
										"outlettype" : [ "", "" ],
										"id" : "obj-14",
										"numinlets" : 2,
										"patching_rect" : [ 42.821069662571006, 456.098033065795903, 84.0, 19.0 ],
										"numoutlets" : 2
									}

								}
, 								{
									"box" : 									{
										"maxclass" : "newobj",
										"text" : "*",
										"outlettype" : [ "" ],
										"id" : "obj-13",
										"numinlets" : 2,
										"patching_rect" : [ 164.612004649639118, 327.152408220767938, 118.898815827369731, 19.0 ],
										"numoutlets" : 1
									}

								}
, 								{
									"box" : 									{
										"maxclass" : "newobj",
										"text" : "+",
										"outlettype" : [ "" ],
										"id" : "obj-12",
										"numinlets" : 2,
										"patching_rect" : [ 42.821069662571006, 393.125859613418584, 29.5, 19.0 ],
										"numoutlets" : 1
									}

								}
, 								{
									"box" : 									{
										"maxclass" : "newobj",
										"text" : "param noiseamnt 0.1 @min 0 @max 1",
										"outlettype" : [ "" ],
										"id" : "obj-11",
										"numinlets" : 0,
										"patching_rect" : [ 264.510820477008849, 296.900429024696336, 197.0, 19.0 ],
										"numoutlets" : 1
									}

								}
, 								{
									"box" : 									{
										"maxclass" : "newobj",
										"text" : "noise",
										"outlettype" : [ "" ],
										"id" : "obj-10",
										"numinlets" : 0,
										"patching_rect" : [ 164.612004649639118, 90.312462773323091, 35.0, 19.0 ],
										"numoutlets" : 1
									}

								}
, 								{
									"box" : 									{
										"maxclass" : "newobj",
										"text" : "*",
										"outlettype" : [ "" ],
										"id" : "obj-9",
										"numinlets" : 2,
										"patching_rect" : [ 42.821069662571006, 226.209096922874437, 73.242739582061745, 19.0 ],
										"numoutlets" : 1
									}

								}
, 								{
									"box" : 									{
										"maxclass" : "newobj",
										"text" : "phasor",
										"outlettype" : [ "" ],
										"id" : "obj-8",
										"numinlets" : 2,
										"patching_rect" : [ 42.821069662571006, 266.691265847682928, 42.0, 19.0 ],
										"numoutlets" : 1
									}

								}
, 								{
									"box" : 									{
										"maxclass" : "newobj",
										"text" : "/",
										"outlettype" : [ "" ],
										"id" : "obj-6",
										"numinlets" : 2,
										"patching_rect" : [ 97.696720628738433, 65.068542320728312, 152.864732444286346, 19.0 ],
										"numoutlets" : 1
									}

								}
, 								{
									"box" : 									{
										"maxclass" : "newobj",
										"text" : "buffer padbuff",
										"outlettype" : [ "", "" ],
										"id" : "obj-5",
										"numinlets" : 0,
										"patching_rect" : [ 231.707227187156718, 25.794689373970016, 76.0, 19.0 ],
										"numoutlets" : 2
									}

								}
, 								{
									"box" : 									{
										"maxclass" : "newobj",
										"text" : "param buffersamplerate",
										"outlettype" : [ "" ],
										"id" : "obj-3",
										"numinlets" : 0,
										"patching_rect" : [ 97.696720628738433, 25.794689373970016, 125.0, 19.0 ],
										"numoutlets" : 1
									}

								}
, 								{
									"box" : 									{
										"maxclass" : "newobj",
										"text" : "in 1",
										"outlettype" : [ "" ],
										"id" : "obj-1",
										"numinlets" : 0,
										"patching_rect" : [ 42.821069662571006, 196.41002627849582, 26.0, 19.0 ],
										"numoutlets" : 1
									}

								}
, 								{
									"box" : 									{
										"maxclass" : "newobj",
										"text" : "out 1",
										"id" : "obj-4",
										"numinlets" : 1,
										"patching_rect" : [ 42.675295548439067, 504.130453050136566, 33.0, 19.0 ],
										"numoutlets" : 0
									}

								}
 ],
							"lines" : [ 								{
									"patchline" : 									{
										"source" : [ "obj-36", 0 ],
										"destination" : [ "obj-18", 0 ]
									}

								}
, 								{
									"patchline" : 									{
										"source" : [ "obj-10", 0 ],
										"destination" : [ "obj-36", 0 ]
									}

								}
, 								{
									"patchline" : 									{
										"source" : [ "obj-14", 0 ],
										"destination" : [ "obj-4", 0 ]
									}

								}
, 								{
									"patchline" : 									{
										"source" : [ "obj-34", 0 ],
										"destination" : [ "obj-14", 0 ],
										"order" : 1
									}

								}
, 								{
									"patchline" : 									{
										"source" : [ "obj-34", 0 ],
										"destination" : [ "obj-15", 0 ],
										"order" : 0
									}

								}
, 								{
									"patchline" : 									{
										"source" : [ "obj-12", 0 ],
										"destination" : [ "obj-34", 0 ]
									}

								}
, 								{
									"patchline" : 									{
										"source" : [ "obj-6", 0 ],
										"destination" : [ "obj-29", 0 ],
										"order" : 2
									}

								}
, 								{
									"patchline" : 									{
										"source" : [ "obj-11", 0 ],
										"destination" : [ "obj-13", 1 ]
									}

								}
, 								{
									"patchline" : 									{
										"source" : [ "obj-13", 0 ],
										"destination" : [ "obj-17", 1 ]
									}

								}
, 								{
									"patchline" : 									{
										"source" : [ "obj-20", 0 ],
										"destination" : [ "obj-13", 0 ]
									}

								}
, 								{
									"patchline" : 									{
										"source" : [ "obj-17", 0 ],
										"destination" : [ "obj-12", 1 ]
									}

								}
, 								{
									"patchline" : 									{
										"source" : [ "obj-6", 0 ],
										"destination" : [ "obj-17", 0 ],
										"order" : 0
									}

								}
, 								{
									"patchline" : 									{
										"source" : [ "obj-22", 0 ],
										"destination" : [ "obj-24", 0 ]
									}

								}
, 								{
									"patchline" : 									{
										"source" : [ "obj-24", 0 ],
										"destination" : [ "obj-20", 0 ]
									}

								}
, 								{
									"patchline" : 									{
										"source" : [ "obj-23", 0 ],
										"destination" : [ "obj-20", 0 ]
									}

								}
, 								{
									"patchline" : 									{
										"source" : [ "obj-21", 0 ],
										"destination" : [ "obj-23", 0 ]
									}

								}
, 								{
									"patchline" : 									{
										"source" : [ "obj-18", 0 ],
										"destination" : [ "obj-20", 0 ]
									}

								}
, 								{
									"patchline" : 									{
										"source" : [ "obj-8", 0 ],
										"destination" : [ "obj-12", 0 ]
									}

								}
, 								{
									"patchline" : 									{
										"source" : [ "obj-5", 0 ],
										"destination" : [ "obj-6", 1 ]
									}

								}
, 								{
									"patchline" : 									{
										"source" : [ "obj-3", 0 ],
										"destination" : [ "obj-6", 0 ]
									}

								}
, 								{
									"patchline" : 									{
										"source" : [ "obj-9", 0 ],
										"destination" : [ "obj-8", 0 ]
									}

								}
, 								{
									"patchline" : 									{
										"source" : [ "obj-6", 0 ],
										"destination" : [ "obj-9", 1 ],
										"order" : 1
									}

								}
, 								{
									"patchline" : 									{
										"source" : [ "obj-1", 0 ],
										"destination" : [ "obj-9", 0 ]
									}

								}
 ],
							"default_bgcolor" : [ 0.149019607843137, 0.141176470588235, 0.141176470588235, 1.0 ],
							"accentcolor" : [ 0.149019607843137, 0.141176470588235, 0.141176470588235, 1.0 ],
							"textcolor" : [ 1.0, 1.0, 1.0, 1.0 ],
							"bgcolor" : [ 0.074509803921569, 0.066666666666667, 0.066666666666667, 1.0 ],
							"editing_bgcolor" : [ 0.074509803921569, 0.066666666666667, 0.066666666666667, 0.741176470588235 ]
						}

					}
,
					"id" : "obj-11",
					"maxclass" : "newobj",
					"numinlets" : 1,
					"numoutlets" : 2,
					"outlettype" : [ "multichannelsignal", "multichannelsignal" ],
					"patching_rect" : [ 177.053601670265209, 226.451260228157025, 189.0, 19.0 ],
					"text" : "mc.gen~ @title blur_play @chans 16",
					"wrapper_uniquekey" : "u404003824"
				}

			}
, 			{
				"box" : 				{
					"buffername" : "padbuff",
					"id" : "obj-10",
					"maxclass" : "waveform~",
					"numinlets" : 5,
					"numoutlets" : 6,
					"outlettype" : [ "float", "float", "float", "float", "list", "" ],
					"patching_rect" : [ 929.082022070884705, 270.784281549453624, 158.789316534996033, 52.544838132858217 ]
				}

			}
, 			{
				"box" : 				{
					"id" : "obj-9",
					"maxclass" : "newobj",
					"numinlets" : 1,
					"numoutlets" : 1,
					"outlettype" : [ "" ],
					"patching_rect" : [ 986.871338605880737, 185.451260228157025, 74.0, 19.0 ],
					"text" : "prepend read"
				}

			}
, 			{
				"box" : 				{
					"id" : "obj-7",
					"maxclass" : "button",
					"numinlets" : 1,
					"numoutlets" : 1,
					"outlettype" : [ "bang" ],
					"parameter_enable" : 0,
					"patching_rect" : [ 986.871338605880737, 128.554447321891757, 24.0, 24.0 ]
				}

			}
, 			{
				"box" : 				{
					"id" : "obj-5",
					"maxclass" : "newobj",
					"numinlets" : 1,
					"numoutlets" : 1,
					"outlettype" : [ "" ],
					"patching_rect" : [ 986.871338605880737, 159.131297168731663, 101.0, 19.0 ],
					"text" : "loadmess jongly.aif"
				}

			}
, 			{
				"box" : 				{
					"decodemode" : 1,
					"id" : "obj-4",
					"maxclass" : "live.drop",
					"numinlets" : 1,
					"numoutlets" : 2,
					"outlettype" : [ "", "" ],
					"parameter_enable" : 1,
					"patching_rect" : [ 810.509543279409399, 128.554447321891757, 140.0, 60.0 ],
					"saved_attribute_attributes" : 					{
						"valueof" : 						{
							"parameter_invisible" : 1,
							"parameter_longname" : "live.drop",
							"parameter_shortname" : "live.drop",
							"parameter_type" : 4
						}

					}
,
					"varname" : "live.drop"
				}

			}
, 			{
				"box" : 				{
					"id" : "obj-3",
					"maxclass" : "newobj",
					"numinlets" : 1,
					"numoutlets" : 1,
					"outlettype" : [ "" ],
					"patching_rect" : [ 810.509543279409399, 201.056669769287083, 88.0, 19.0 ],
					"text" : "prepend replace"
				}

			}
, 			{
				"box" : 				{
					"id" : "obj-2",
					"maxclass" : "newobj",
					"numinlets" : 1,
					"numoutlets" : 2,
					"outlettype" : [ "float", "bang" ],
					"patching_rect" : [ 810.509543279409399, 236.887439701557128, 82.0, 19.0 ],
					"text" : "buffer~ padbuff"
				}

			}
, 			{
				"box" : 				{
					"id" : "obj-1",
					"maxclass" : "newobj",
					"numinlets" : 3,
					"numoutlets" : 2,
					"outlettype" : [ "multichannelsignal", "multichannelsignal" ],
					"patching_rect" : [ 170.78125, 693.635520039796802, 262.0, 19.0 ],
					"text" : "mc.groove~ bb @loop 1 @timestretch 1 @chans 16"
				}

			}
 ],
		"lines" : [ 			{
				"patchline" : 				{
					"destination" : [ "obj-84", 0 ],
					"source" : [ "obj-1", 0 ]
				}

			}
, 			{
				"patchline" : 				{
					"destination" : [ "obj-106", 0 ],
					"source" : [ "obj-102", 0 ]
				}

			}
, 			{
				"patchline" : 				{
					"destination" : [ "obj-102", 0 ],
					"source" : [ "obj-105", 0 ]
				}

			}
, 			{
				"patchline" : 				{
					"destination" : [ "obj-16", 0 ],
					"source" : [ "obj-11", 0 ]
				}

			}
, 			{
				"patchline" : 				{
					"destination" : [ "obj-39", 0 ],
					"order" : 1,
					"source" : [ "obj-11", 1 ]
				}

			}
, 			{
				"patchline" : 				{
					"destination" : [ "obj-43", 0 ],
					"order" : 0,
					"source" : [ "obj-11", 1 ]
				}

			}
, 			{
				"patchline" : 				{
					"destination" : [ "obj-61", 1 ],
					"order" : 1,
					"source" : [ "obj-16", 0 ]
				}

			}
, 			{
				"patchline" : 				{
					"destination" : [ "obj-62", 0 ],
					"order" : 0,
					"source" : [ "obj-16", 0 ]
				}

			}
, 			{
				"patchline" : 				{
					"destination" : [ "obj-11", 0 ],
					"order" : 1,
					"source" : [ "obj-19", 0 ]
				}

			}
, 			{
				"patchline" : 				{
					"destination" : [ "obj-53", 0 ],
					"order" : 0,
					"source" : [ "obj-19", 0 ]
				}

			}
, 			{
				"patchline" : 				{
					"destination" : [ "obj-88", 0 ],
					"order" : 2,
					"source" : [ "obj-19", 0 ]
				}

			}
, 			{
				"patchline" : 				{
					"destination" : [ "obj-30", 0 ],
					"source" : [ "obj-2", 1 ]
				}

			}
, 			{
				"patchline" : 				{
					"destination" : [ "obj-19", 0 ],
					"source" : [ "obj-22", 0 ]
				}

			}
, 			{
				"patchline" : 				{
					"destination" : [ "obj-11", 0 ],
					"order" : 0,
					"source" : [ "obj-26", 0 ]
				}

			}
, 			{
				"patchline" : 				{
					"destination" : [ "obj-88", 0 ],
					"order" : 1,
					"source" : [ "obj-26", 0 ]
				}

			}
, 			{
				"patchline" : 				{
					"destination" : [ "obj-26", 0 ],
					"source" : [ "obj-27", 0 ]
				}

			}
, 			{
				"patchline" : 				{
					"destination" : [ "obj-2", 0 ],
					"source" : [ "obj-3", 0 ]
				}

			}
, 			{
				"patchline" : 				{
					"destination" : [ "obj-29", 0 ],
					"source" : [ "obj-30", 0 ]
				}

			}
, 			{
				"patchline" : 				{
					"destination" : [ "obj-38", 0 ],
					"source" : [ "obj-32", 0 ]
				}

			}
, 			{
				"patchline" : 				{
					"destination" : [ "obj-11", 0 ],
					"source" : [ "obj-38", 0 ]
				}

			}
, 			{
				"patchline" : 				{
					"destination" : [ "obj-3", 0 ],
					"source" : [ "obj-4", 0 ]
				}

			}
, 			{
				"patchline" : 				{
					"destination" : [ "obj-42", 0 ],
					"source" : [ "obj-41", 0 ]
				}

			}
, 			{
				"patchline" : 				{
					"destination" : [ "obj-11", 0 ],
					"order" : 0,
					"source" : [ "obj-42", 0 ]
				}

			}
, 			{
				"patchline" : 				{
					"destination" : [ "obj-88", 0 ],
					"order" : 1,
					"source" : [ "obj-42", 0 ]
				}

			}
, 			{
				"patchline" : 				{
					"destination" : [ "obj-28", 0 ],
					"source" : [ "obj-43", 0 ]
				}

			}
, 			{
				"patchline" : 				{
					"destination" : [ "obj-62", 0 ],
					"source" : [ "obj-46", 0 ]
				}

			}
, 			{
				"patchline" : 				{
					"destination" : [ "obj-46", 0 ],
					"source" : [ "obj-47", 0 ]
				}

			}
, 			{
				"patchline" : 				{
					"destination" : [ "obj-9", 0 ],
					"source" : [ "obj-5", 0 ]
				}

			}
, 			{
				"patchline" : 				{
					"destination" : [ "obj-61", 0 ],
					"source" : [ "obj-60", 0 ]
				}

			}
, 			{
				"patchline" : 				{
					"destination" : [ "obj-58", 0 ],
					"source" : [ "obj-61", 0 ]
				}

			}
, 			{
				"patchline" : 				{
					"destination" : [ "obj-55", 0 ],
					"source" : [ "obj-62", 0 ]
				}

			}
, 			{
				"patchline" : 				{
					"destination" : [ "obj-85", 0 ],
					"source" : [ "obj-68", 0 ]
				}

			}
, 			{
				"patchline" : 				{
					"destination" : [ "obj-5", 0 ],
					"source" : [ "obj-7", 0 ]
				}

			}
, 			{
				"patchline" : 				{
					"destination" : [ "obj-1", 0 ],
					"source" : [ "obj-73", 0 ]
				}

			}
, 			{
				"patchline" : 				{
					"destination" : [ "obj-76", 0 ],
					"source" : [ "obj-75", 0 ]
				}

			}
, 			{
				"patchline" : 				{
					"destination" : [ "obj-68", 0 ],
					"source" : [ "obj-76", 0 ]
				}

			}
, 			{
				"patchline" : 				{
					"destination" : [ "obj-79", 0 ],
					"source" : [ "obj-77", 1 ]
				}

			}
, 			{
				"patchline" : 				{
					"destination" : [ "obj-1", 0 ],
					"source" : [ "obj-79", 0 ]
				}

			}
, 			{
				"patchline" : 				{
					"destination" : [ "obj-82", 0 ],
					"source" : [ "obj-80", 0 ]
				}

			}
, 			{
				"patchline" : 				{
					"destination" : [ "obj-80", 0 ],
					"source" : [ "obj-81", 0 ]
				}

			}
, 			{
				"patchline" : 				{
					"destination" : [ "obj-87", 0 ],
					"source" : [ "obj-83", 0 ]
				}

			}
, 			{
				"patchline" : 				{
					"destination" : [ "obj-80", 1 ],
					"source" : [ "obj-84", 0 ]
				}

			}
, 			{
				"patchline" : 				{
					"destination" : [ "obj-1", 0 ],
					"source" : [ "obj-85", 0 ]
				}

			}
, 			{
				"patchline" : 				{
					"destination" : [ "obj-73", 0 ],
					"source" : [ "obj-87", 0 ]
				}

			}
, 			{
				"patchline" : 				{
					"destination" : [ "obj-91", 0 ],
					"source" : [ "obj-88", 0 ]
				}

			}
, 			{
				"patchline" : 				{
					"destination" : [ "obj-2", 0 ],
					"source" : [ "obj-9", 0 ]
				}

			}
, 			{
				"patchline" : 				{
					"destination" : [ "obj-1", 0 ],
					"source" : [ "obj-90", 0 ]
				}

			}
, 			{
				"patchline" : 				{
					"destination" : [ "obj-62", 0 ],
					"source" : [ "obj-93", 0 ]
				}

			}
, 			{
				"patchline" : 				{
					"destination" : [ "obj-93", 0 ],
					"order" : 1,
					"source" : [ "obj-94", 0 ]
				}

			}
, 			{
				"patchline" : 				{
					"destination" : [ "obj-97", 0 ],
					"order" : 0,
					"source" : [ "obj-94", 0 ]
				}

			}
, 			{
				"patchline" : 				{
					"destination" : [ "obj-101", 0 ],
					"order" : 1,
					"source" : [ "obj-95", 0 ]
				}

			}
, 			{
				"patchline" : 				{
					"destination" : [ "obj-90", 0 ],
					"order" : 0,
					"source" : [ "obj-95", 0 ]
				}

			}
, 			{
				"patchline" : 				{
					"destination" : [ "obj-62", 0 ],
					"source" : [ "obj-97", 0 ]
				}

			}
 ],
		"parameters" : 		{
			"obj-22" : [ "live.dial", "pitch", 0 ],
			"obj-27" : [ "live.dial[1]", "noiseamnt", 0 ],
			"obj-4" : [ "live.drop", "live.drop", 0 ],
			"obj-41" : [ "live.dial[2]", "Hz", 0 ],
			"obj-75" : [ "live.dial[3]", "stretch", 0 ],
			"obj-77" : [ "live.menu", "live.menu", 0 ],
			"obj-83" : [ "live.dial[4]", "pitchshift", 0 ],
			"parameterbanks" : 			{
				"0" : 				{
					"index" : 0,
					"name" : "",
					"parameters" : [ "-", "-", "-", "-", "-", "-", "-", "-" ]
				}

			}
,
			"inherited_shortname" : 1
		}
,
		"dependency_cache" : [  ],
		"autosave" : 0,
		"default_bgcolor" : [ 0.149019607843137, 0.141176470588235, 0.141176470588235, 1.0 ],
		"accentcolor" : [ 0.149019607843137, 0.141176470588235, 0.141176470588235, 1.0 ],
		"textcolor" : [ 1.0, 1.0, 1.0, 1.0 ],
		"bgcolor" : [ 0.074509803921569, 0.066666666666667, 0.066666666666667, 1.0 ],
		"editing_bgcolor" : [ 0.074509803921569, 0.066666666666667, 0.066666666666667, 0.741176470588235 ]
	}

}
